<svg width="102" height="41" viewBox="0 0 102 41" xmlns="http://www.w3.org/2000/svg"><path fill="#fff" d="M70.317 33.432c-6.651-1.115-5.628-12.049-3.235-16.705 5.958.164 13.912-8.295 12.361-14.295-.297-1.115-1.155-1.393-1.832-1.557-7.773-1.82-11.833 9.18-13.846 14.311-1.832-.279-3.763-1.213-4.093-2.525 3.928 1.295 4.802-5.016 1.419-5.754-1.799-.246-3.334.754-3.532 2.934 0 1.098.198 2.328.99 3.656.99 1.672 3.086 2.459 4.802 2.934-.825 2.82-1.683 5.918-1.832 9.131-.149 2.918.248 13.115 6.783 12.213 1.452-.213 2.063-2.197 2.542-3.787.132-.443-.198-.459-.528-.557zm4.885-30.705c5.017-.082-3.548 12.443-7.476 12.344 1.716-4.197 4.934-12.328 7.476-12.344zm-37.892 29.328c-2.657-4.508-2.096-9.525-1.419-15.164-2.987-2.328-5.331 1.426-5.941 4.066-3.07-2.623-7.146-.246-8.202 1.557-1.436 2.459-1.535 5.984-.429 8.705 1.634 3.967 9.918 6.164 12.146.426 1.155 1.639 4.522 3.918 5.727 2.836 1.023-.951-1.089-.721-1.881-2.426zm-8.928-.689c-2.475-.721-3.235-4.443-2.542-7.311.512-1.443 2.542-1.525 3.829-.689 1.518.967 1.898 3.59 2.409 5.475-.627 1.721-2.277 2.918-3.697 2.525zm53.471 3.934c-4.505-1.705-5.809-6.361-5.661-11.508 10.529-2.23 15.761-13.836 13.995-16.557-1.881-2.689-4.67-1.246-7.476.426-1.799 1.066-8.004 5.016-9.885 14.59-.825.393-1.601.459-2.558.016-.38-.148-.611.148-.578.574.05.246.99 1.049 2.74 1.328-.512 4.41.957 11.426 3.779 14.377.66.689 2.046 1.295 2.954 1.262 1.304-.066 4.192-1.738 3.829-3.23-.149-.541-.116-.869-1.139-1.279zm4.654-26.672c1.419.607-1.947 6.148-2.69 7.311-1.518 2.393-4.093 4.393-7.063 5.328 1.601-5.377 7.79-13.508 9.753-12.639zm-63.835 6.852c2.063-1.623 4.901-2.475 7.476-2.672 1.452-3.803-3.301-5.443-6.502-4.77-3.862.951-7.146 7.262-8.351 11.082-1.502 4.787-.578 10.574.693 15.574-2.608-2.41-5.875-5.885-7.36-9.41-.231-.541-.875-2.197-.99-2.525-1.04-3.066-.875-7.033.429-8.984-1.65-.311-3.235.59-4.522 1.672-.908.82-2.244 2.459-2.492 3.508-.512 2.115.908 4.541 1.832 6.311 1.881 3.574 3.136 5.18 5.793 7.852 2.624 2.639 4.984 4.426 8.202 6.311 1.584.918 3.763 1.951 5.215.689-1.106-2.656-8.928-17.213.578-24.639zm37.083 2.361c-.446-1.344-2.36-2.18-3.779-1.066-1.832 1.508-1.733 10.23-1.073 11.508.38 1.623 3.152 2.59 3.845.672.297-1.033-.743.066-1.287-.82-2.508-3.803 3.086-7.82 2.294-10.295zm-9.72 11.689c-.297-2.41 2.195-5.902 2.112-8.705-.05-1.639-.594-3.344-2.261-3.803-4.192-.574-6.024 1.951-7.905 4.344-.957-2-3.152-3.885-5.215-2.098-.908 1 .99 3.754 1.832 5.754.594 1.426 1.337 2.902 1.419 4.344.066.984-.545 2.393.281 2.525 2.707.311 1.964-4.311 2.542-6.738.528-2.197 1.584-3.295 3.829-4.066 2.855-.803-6.073 15.541 5.644 14.459 1.436-.623 3.185-2.492 1.832-4.213-1.898.131-3.845.361-4.109-1.803zm50.17-6.885c-1.584-.23-2.723 1.328-3.829 1.82.957-2.492-1.188-4.115-1.683-4.639-7.294-4.787-17.576 7.869-12.427 12.77 2.211 1.738 5.727 2.164 8.202.279.33 3.951 8.136 4.557 8.202.689-9.489 2.443 1.733-5.475 3.103-8.426.545-1.148-.149-2.279-1.568-2.492zm-10.595 8.574c-1.419-.066-2.393-.148-2.69-1.41-.429-3.639 2.046-5.984 4.373-6.59 6.42-1.689 1.122 8.148-1.683 8z"/></svg>
