<svg xmlns="http://www.w3.org/2000/svg" width="24" height="24" viewBox="0 0 24 24">
  <path fill="#FFF" fill-rule="evenodd" d="M16.4551454,13.8222842 L20.5158356,17.645492 C21.1682889,18.2978873 21.1576156,19.3578042 20.5062139,20.0091481 L20.2576699,20.2576699 C19.6048461,20.9104358 18.5463338,20.9197627 17.8938039,20.2672908 L13.8124109,16.424591 C12.7550389,17.0281558 11.5295969,17.3732479 10.2231447,17.3732479 C6.23391205,17.3732479 3,14.1556868 3,10.186624 C3,6.21756115 6.23391205,3 10.2231447,3 C14.2123774,3 17.4462895,6.21756115 17.4462895,10.186624 C17.4462895,11.5131397 17.0850651,12.7557135 16.4551454,13.8222842 Z M10.2231447,15.6432329 C13.2520611,15.6432329 15.7074829,13.2002259 15.7074829,10.186624 C15.7074829,7.17302206 13.2520611,4.73001502 10.2231447,4.73001502 C7.1942284,4.73001502 4.73880656,7.17302206 4.73880656,10.186624 C4.73880656,13.2002259 7.1942284,15.6432329 10.2231447,15.6432329 Z" opacity=".7"/>
</svg>
