<svg xmlns="http://www.w3.org/2000/svg" width="130" height="36" viewBox="0 0 130 36">
  <g fill="#FFF" fill-rule="evenodd" transform="translate(1)">
    <path d="M18.324959 34.4620595C18.1467108 34.0678172 17.9697162 33.6730755 17.7977356 33.2758371 17.3479787 32.2359262 16.9305622 31.1817837 16.5650407 30.1094147 14.769523 24.841948 14.0427419 18.2888868 18.5420657 14.1212537 19.9758225 12.7929642 21.7477744 11.9440574 23.6418174 11.4846491 24.1003489 11.3732925 25.5524068 11.2102524 25.7617418 11.1365973 26.2676556 10.9575778 26.0523038 9.64826389 25.9680684 9.27449522 25.5308465 7.3297496 22.9877396 6.60742978 21.2468745 6.7729666 19.4423316 6.94449571 17.8807175 8.02360607 16.6823686 9.32168445 15.5870576 10.5084062 14.7241461 11.9150947 14.0881187 13.39419 11.6322556 19.1038373 12.8095456 28.4330734 14.4019959 31.0559458 13.9532418 30.3411163 12.9642279 29.6961968 12.3472537 29.1126982 11.7510876 28.5486746 11.1461471 27.994638 10.5645217 27.4158833 9.34260692 26.2004485 8.20893877 24.8793997 7.395666 23.3531152 6.24169111 21.1871545 5.40033987 18.724326 5.38504713 16.2597498 5.37602191 14.8335864 5.55803055 13.218666 6.3617767 11.9969893 4.86384057 11.709859 3.44312023 12.5662562 2.34931348 13.4965582 1.0787628 14.5764176-.146661763 16.1224267.0142880264 17.8686779.192285457 19.7979435 1.37183181 21.6398216 2.29466075 23.298935 4.08340958 26.5147937 6.59618176 29.2352904 9.42132691 31.5855138 10.9488457 32.8561276 12.6034697 33.9821775 14.3323011 34.9629145 15.4945491 35.6220657 17.0198116 36.4018116 18.3532881 35.7596385 18.4753793 35.7012138 18.7025141 35.6160734 18.738615 35.4745057 18.7762201 35.325947 18.6556331 35.1334449 18.5972198 35.0051102 18.5132351 34.8208475 18.4084423 34.6465719 18.324959 34.4620595M50.4386287 19.9716698C51.0535973 18.7966829 52.627245 17.0259631 52.1601898 15.5893132 51.7723559 14.3975979 50.0510456 13.6415714 48.8003003 14.639786 47.1732533 15.9778129 47.2662632 23.742314 47.8448802 24.883095 48.1522392 26.1572042 50.2378175 27.0847597 51.1428467 25.8393635 51.3098133 25.6096593 51.3007881 25.2296487 51.0515917 25.0925752 50.8966587 25.0071852 50.7066277 25.0393937 50.5291316 25.0291569 49.7063322 24.9809689 49.5205631 23.2534436 49.5476388 22.6534662 49.5902579 21.7021912 50.0039139 20.8021004 50.4386287 19.9716698M43.5461921 25.9837027C43.2751848 23.8324729 45.5011555 20.7319657 45.4266974 18.2411732 45.3915993 17.0581966 45.0604238 15.663992 43.9217416 15.0640147 43.7645524 14.9813711 43.5950788 14.9206992 43.4188362 14.8777545 42.894872 14.7499191 42.3089846 14.7763851 41.7950484 14.8260711 41.1878515 14.8847455 40.5924376 15.0402952 40.0388906 15.2969647 39.0039985 15.7768467 38.1746809 16.578814 37.4453929 17.4369589 37.084384 17.8616619 36.7434312 18.3025941 36.3994699 18.7407799 36.4267963 18.7058249 36.1928926 18.3432917 36.1655663 18.2963522 36.0760662 18.1432993 35.9792957 17.9939915 35.8757564 17.8499271 35.6699312 17.5632962 35.4367796 17.2948918 35.1750482 17.0576973 34.7027282 16.6294987 34.1028017 16.2744559 33.4507294 16.2357557 33.0942331 16.2145331 32.7342271 16.2904353 32.4095698 16.4372463 32.1503453 16.5543455 31.8234318 16.7336146 31.6735128 16.9850408 31.4536484 17.3540656 31.5556835 17.841438 31.6677467 18.2276906 32.014967 19.4256479 32.7149231 20.5032602 33.2331213 21.6305585 33.2872726 21.7486564 33.3399197 21.8672537 33.3898091 21.9870993 33.9235507 23.2654531 34.5686034 24.566278 34.6438136 25.8588634 34.6952072 26.7424755 34.1546967 27.9926156 34.8947649 28.1067187 37.3034963 28.3933496 36.6326215 24.2714077 37.1513211 22.1119386 37.5634729 20.3958984 38.6339644 19.1265331 40.3221823 18.5285531 40.4768646 18.4738736 40.654862 18.4633871 40.8010205 18.5375416 40.9877924 18.6321697 41.0883234 18.8471429 41.1018612 19.0556244 41.1698011 20.1087682 40.7215484 21.3644012 40.5174781 22.3968217 40.2803153 23.5955281 40.0689747 24.8074674 40.0220937 26.0306422 39.9335964 28.3491565 40.6232738 30.7033748 43.1688877 31.2571617 44.4198838 31.5293112 45.5741094 31.5787475 46.5826779 30.6866464 47.4796847 29.8929185 48.0041503 28.6512675 47.1826044 27.6071121 45.4983978 27.704237 43.7886196 27.9054779 43.5461921 25.9837027M66.532655 1.75368027C70.9828415 1.68152319 62.7252649 13.211675 59.2395237 13.1160482 60.7655383 9.39034603 64.2976591 1.78089523 66.532655 1.75368027M61.5732956 29.4580036C61.0087179 29.3101939 60.4541681 29.2040806 59.9477529 28.9152026 59.5669387 28.6977326 59.2207211 28.4228366 58.9188776 28.1054953 58.3124328 27.4670674 57.895267 26.6728402 57.6127274 25.8456554 57.2033333 24.6476981 57.0539158 23.3665979 57.0476483 22.1059713 57.0401272 20.5137717 57.2537242 18.9140817 57.6533409 17.3733158 57.8353496 16.6714696 58.0572196 15.9783622 58.3380043 15.3092239 58.444552 15.0545519 58.6711854 14.593146 58.6711854 14.593146 58.6711854 14.593146 59.6057973 14.5569427 59.9467501 14.4955218 63.5162253 13.853099 66.6803177 10.8931608 68.4302079 7.8515776 69.6305624 5.76476493 70.8910851 2.37213385 68.3477274.722008826 64.3563231-1.86790597 60.7344514 3.14663647 59.1618065 5.73405448 58.28636 7.17419991 57.562838 8.7017328 56.9070052 10.2517368 56.6267219 10.9133847 56.3599765 11.5802759 56.0977437 12.2491645 56.0052351 12.4853604 55.6978762 13.2346455 55.6978762 13.2346455 55.6978762 13.2346455 55.2075058 13.1527509 55.0768908 13.1207921 54.7645178 13.0446402 54.4561561 12.9480146 54.157321 12.829667 53.3249949 12.5000914 52.3164264 11.9305748 52.0729961 10.9982754 55.3927736 12.1100936 56.9227994 6.51654681 53.3264992 5.87836864 51.2158507 5.59023968 50.0149948 7.3447303 50.2341072 9.28922625 50.3619645 10.4232659 50.8047017 11.6077405 51.6039353 12.4439137 52.3550343 13.2299016 53.3738816 13.7125301 54.3869627 14.06982 54.6120919 14.1492177 55.0678656 14.2917841 55.0678656 14.2917841L55.3248337 14.3596967C55.3248337 14.3596967 55.2132719 14.7816533 55.1829371 14.8860189 54.9959145 15.5329358 54.8144073 16.1811011 54.6459364 16.8327619 54.2962091 18.1845212 54.0036415 19.5535082 53.8356721 20.9402225 53.6727167 22.2822443 53.6486494 23.6250151 53.7434143 24.9722801 53.9204089 27.4945321 54.3922274 30.7126379 56.4359388 32.4631337 57.3735591 33.2663493 59.1640628 33.8411091 60.3072576 33.1352681 61.3057981 32.5185623 61.5645211 31.2067516 61.9275356 30.1883131 62.0014923 29.9805806 62.0132752 29.7149227 61.8438016 29.573355 61.7678393 29.5099367 61.6690633 29.4832211 61.5732956 29.4580036M77.0219434 6.65471888C78.2839702 7.20126505 74.7626295 16.0898187 67.2599124 18.6312958 68.6670949 13.853948 75.2728052 5.88046594 77.0219434 6.65471888M71.7772867 31.1152195C71.359118 30.9679092 70.9559915 30.7674173 70.5766815 30.5377132 69.8559172 30.1010255 69.2236503 29.5305102 68.7119703 28.86287 67.6394731 27.4644208 67.1230299 25.7229135 66.8973993 23.9988836 66.762021 22.9654644 66.7281764 21.9203104 66.7587619 20.8791511 76.1023735 18.8907118 80.6398038 8.66038605 79.1722025 6.14337737 77.839478 3.85732127 75.1762855 4.55167711 72.81619 6.07446611 71.2610941 7.07792389 65.3806607 11.1324526 63.7175128 19.6494847 63.1489239 19.7923007 62.5637887 19.7863085 61.9929434 19.6624679 61.7700705 19.6140303 61.4346331 19.4262721 61.2115096 19.5014253 60.9788594 19.5798244 60.9219504 19.8354951 60.9981634 20.0467231 61.0776355 20.2669395 61.3005083 20.3845381 61.4930464 20.496394 62.0734183 20.83346 62.7452959 21.018222 63.4046385 21.1235864 62.9626533 25.0372964 64.2397222 31.3571579 66.7587619 33.9912658 67.6414787 34.9148264 68.963423 35.257635 70.1928588 34.9200697 71.3255242 34.608471 73.1902353 33.4744313 72.7557711 32.0632486 72.6086099 31.585364 72.235066 31.2765118 71.7772867 31.1152195M82.2771044 23.5408235C81.8792426 24.4928475 81.2146352 25.384699 80.5618109 26.1754308 79.8731363 27.0098562 79.100477 27.8530204 78.0425205 27.9576357 77.8374474 27.9778596 77.6213434 27.970619 77.3929552 27.9296717 76.1765558 27.7124514 75.5342609 27.0238382 75.6029529 25.7542232 75.6749039 24.432675 76.2612926 23.1455825 77.2129522 22.2217721 79.1443496 20.3461875 83.7685223 19.9724188 82.2771044 23.5408235M87.9622421 20.3741514C86.5515498 20.1739093 85.5442347 21.5443944 84.5762797 21.9975609 85.4111127 19.771927 83.534368 18.3367751 83.0723267 17.8766177 76.6095158 13.6225959 67.4754899 24.8786008 72.0372381 29.240234 74.0092491 30.7837463 77.1252069 31.1657544 79.3103134 29.4899125 79.6174217 32.9998924 86.5302402 33.5481864 86.5826366 30.1141087 78.1653638 32.2730784 88.116423 25.2461275 89.3413461 22.6215074 89.8344742 21.5656171 89.2222633 20.5521722 87.9622421 20.3741514M26.2702629 26.8249194C25.970425 27.3197821 25.5246793 27.7115276 24.8806294 27.9287479 22.29014 28.8026225 21.1258864 25.8986122 21.1361652 23.9668499 21.1419313 22.9132067 21.4731068 21.7100062 22.252535 20.9437429 22.8815428 20.3252894 23.9670764 19.9522697 24.9077051 20.1048233 25.2539226 20.1612506 25.5690533 20.3168003 25.8215088 20.5417606 26.3587602 21.0206439 26.5041666 21.6890332 26.6177339 22.3479347 26.7295464 22.995351 26.8082664 23.6502576 26.8155367 24.3079107 26.8250633 25.1568175 26.729045 26.0676446 26.2702629 26.8249194M32.2722861 28.1654431C31.7723891 27.9532164 31.2439122 27.6850617 30.8889202 27.2631051 30.4820331 26.7794779 30.2365972 25.9725171 30.0786558 25.3682952 29.6935797 23.8941935 29.8053921 22.3504315 29.9184581 20.8486154 29.9746151 20.1000794 30.0453126 19.3530414 30.1202721 18.6062531 30.1814431 17.9977867 30.2473773 17.3900693 30.303785 16.7813531 30.333869 16.454524 30.392533 16.102727 30.358187 15.7736508 30.3569335 15.7631643 30.35568 15.7526778 30.3539251 15.7421913 30.1801896 14.7437271 28.8437046 14.3287615 27.8108181 15.0605691 27.3023973 15.4203558 27.041418 15.9851285 26.8927525 16.5718729 26.8170409 16.8719864 26.7663994 17.1775929 26.714003 17.4824503 26.6646149 17.7693309 26.6390435 18.0981574 26.5314929 18.3705566 26.4562827 18.5605619 26.3983709 18.3583224 26.3402084 18.2527084 26.2697615 18.125622 26.1905401 18.0032796 26.1027949 17.8874288 25.936079 17.6669627 25.7382762 17.470216 25.517409 17.3034308 25.0666493 16.9628694 24.5268909 16.7538885 23.9700848 16.6642539 23.5105506 16.5900994 23.0302082 16.5688768 22.5621502 16.6213092 22.3059342 16.6500223 22.053228 16.7009567 21.8097977 16.7773583 19.9884578 17.3496213 18.92649 19.2611597 18.3456167 20.9851896 18.0718516 21.7981427 17.9091469 22.6470495 17.8387001 23.5007002 17.7672504 24.3655864 17.7898135 25.238712 17.9051357 26.099104 18.0156947 26.9270379 18.212244 27.7462329 18.5115805 28.5272272 18.7855963 29.2428057 19.1473572 29.9311692 19.6249419 30.5336434 20.6106967 31.7772919 22.0544815 32.4838819 23.6579626 32.1478147 25.4416974 31.7742957 27.1096085 30.0140625 27.6531274 28.3207431 27.7223208 28.1045215 27.726332 27.6061633 28.004359 27.7242612 28.1497653 27.7859318 28.3879309 28.4233609 28.4894647 28.5756648 28.8497214 29.1139716 29.297222 29.6018433 29.8570365 29.9389093 30.7292239 30.4632341 33.5734223 30.926887 33.3064261 29.1591634 33.2154218 28.5569389 32.76391 28.3741743 32.2722861 28.1654431M103.552882 19.4116286C100.602736 19.4116286 98.2111709 21.8287138 98.2111709 24.8103395 98.2111709 27.7919652 100.602736 30.2090504 103.552882 30.2090504L122.17256 30.2090504C125.122705 30.2090504 127.514271 27.7919652 127.514271 24.8103395 127.514271 21.8287138 125.122705 19.4116286 122.17256 19.4116286L103.552882 19.4116286zM103.552882 18.4861353L122.17256 18.4861353C125.628445 18.4861353 128.429993 21.317578 128.429993 24.8103395 128.429993 28.303101 125.628445 31.1345437 122.17256 31.1345437L103.552882 31.1345437C100.096997 31.1345437 97.295449 28.303101 97.295449 24.8103395 97.295449 21.317578 100.096997 18.4861353 103.552882 18.4861353zM103.60011 20.3371219L103.60011 20.3371219C101.12962 20.3371219 99.1268927 22.3398496 99.1268927 24.8103395 99.1268927 27.2808294 101.12962 29.2835571 103.60011 29.2835571L122.125331 29.2835571C124.595821 29.2835571 126.598549 27.2808294 126.598549 24.8103395L126.598549 24.8103395C126.598549 22.3398496 124.595821 20.3371219 122.125331 20.3371219L122.125331 20.3371219 103.60011 20.3371219zM108.20333 24.823294C108.20333 25.7658638 107.937887 26.4877936 107.406992 26.989105 106.876097 27.4904163 106.109476 27.7410683 105.107105 27.7410683L103.502803 27.7410683 103.502803 22.015181 105.281486 22.015181C106.206354 22.015181 106.924536 22.2619165 107.436055 22.7553949 107.947574 23.2488733 108.20333 23.9381661 108.20333 24.823294zM106.95554 24.8546258C106.95554 23.6248463 106.418194 23.0099658 105.343488 23.0099658L104.704092 23.0099658 104.704092 26.7384505 105.219484 26.7384505C106.37686 26.7384505 106.95554 26.1105152 106.95554 24.8546258zM114.089903 24.8702917C114.089903 25.8180835 113.857398 26.5465407 113.392381 27.055685 112.927364 27.5648294 112.260849 27.8193978 111.392816 27.8193978 110.524784 27.8193978 109.858269 27.5648294 109.393252 27.055685 108.928234 26.5465407 108.695729 25.8154726 108.695729 24.8624587 108.695729 23.9094449 108.92888 23.1816405 109.395189 22.6790236 109.861498 22.1764068 110.529951 21.9251021 111.400567 21.9251021 112.271182 21.9251021 112.937051 22.178365 113.398194 22.6848983 113.859336 23.1914317 114.089903 23.9198889 114.089903 24.8702917zM109.955145 24.8702917C109.955145 25.5099859 110.075273 25.9917076 110.315532 26.3154712 110.555791 26.6392348 110.914882 26.8011141 111.392816 26.8011141 112.351269 26.8011141 112.830488 26.1575131 112.830488 24.8702917 112.830488 23.5804593 112.353852 22.9355528 111.400567 22.9355528 110.922632 22.9355528 110.562249 23.0980849 110.319407 23.423154 110.076564 23.7482231 109.955145 24.2305975 109.955145 24.8702917zM117.240638 22.9433857C116.788538 22.9433857 116.438489 23.1150562 116.19048 23.4584023 115.94247 23.8017483 115.818468 24.2802063 115.818468 24.8937905 115.818468 26.170568 116.29252 26.8089471 117.240638 26.8089471 117.638487 26.8089471 118.120289 26.7084252 118.68606 26.5073785L118.68606 27.5256621C118.221043 27.7214869 117.701781 27.8193978 117.12826 27.8193978 116.304146 27.8193978 115.673798 27.5667876 115.237199 27.0615598 114.800599 26.5563319 114.582303 25.8311384 114.582303 24.8859576 114.582303 24.2906503 114.689513 23.7691116 114.903938 23.3213256 115.118363 22.8735397 115.426432 22.5301988 115.828155 22.2912926 116.229879 22.0523864 116.700702 21.932935 117.240638 21.932935 117.790909 21.932935 118.343755 22.0673994 118.899192 22.336332L118.51168 23.3232839C118.299838 23.221455 118.086709 23.1326824 117.872284 23.0569635 117.657859 22.9812446 117.447313 22.9433857 117.240638 22.9433857zM122.805576 26.1509792C122.805576 26.6679566 122.62151 27.0752659 122.253371 27.3729196 121.885232 27.6705732 121.373075 27.8193978 120.716884 27.8193978 120.112362 27.8193978 119.5776 27.7045156 119.112582 27.4747479L119.112582 26.346803C119.49493 26.5191288 119.8185 26.6405383 120.083301 26.7110352 120.348103 26.7815321 120.590296 26.81678 120.809887 26.81678 121.073397 26.81678 121.275547 26.7658664 121.416344 26.6640375 121.557141 26.5622086 121.627538 26.4107731 121.627538 26.2097263 121.627538 26.0974535 121.596538 25.9975843 121.534535 25.910116 121.472533 25.8226476 121.381469 25.7384442 121.261339 25.6575033 121.14121 25.5765624 120.896433 25.44732 120.527003 25.2697722 120.180823 25.1052794 119.921193 24.9473165 119.748103 24.7958787 119.575013 24.6444409 119.436802 24.4682012 119.333464 24.2671545 119.230127 24.0661077 119.178459 23.8311215 119.178459 23.5621889 119.178459 23.0556555 119.348317 22.6574845 119.688038 22.3676638 120.027759 22.0778432 120.497291 21.932935 121.096646 21.932935 121.391157 21.932935 121.672101 21.968183 121.939486 22.0386799 122.206871 22.1091768 122.486523 22.2083932 122.778451 22.336332L122.390938 23.2802026C122.088677 23.1548748 121.838734 23.0674077 121.641101 23.0177988 121.443469 22.9681898 121.249069 22.9433857 121.057895 22.9433857 120.830553 22.9433857 120.656174 22.9969104 120.534753 23.1039612 120.413332 23.2110121 120.352622 23.3506983 120.352622 23.5230241 120.352622 23.630075 120.377165 23.7234167 120.42625 23.8030521 120.475335 23.8826875 120.553482 23.9597108 120.660695 24.0341242 120.767907 24.1085376 121.021725 24.2423492 121.422157 24.4355629 121.95176 24.6914406 122.314726 24.9479672 122.511067 25.2051504 122.707408 25.4623335 122.805576 25.7776067 122.805576 26.1509792z"/>
  </g>
</svg>
