<svg xmlns="http://www.w3.org/2000/svg" width="118" height="71" viewBox="0 0 118 71">
  <g fill="#FFF" fill-rule="evenodd" transform="translate(0 1)">
    <path d="M24.1570926,45.9502856 C23.9221149,45.4246192 23.6887897,44.898287 23.4620742,44.3686256 C22.8691769,42.9820515 22.3189127,41.5765015 21.8370597,40.1466489 C19.4700973,33.1232265 18.5120096,24.3856456 24.4432961,18.828696 C26.3333628,17.0576097 28.6692592,15.9257125 31.1661038,15.3131563 C31.7705682,15.164678 33.6847606,14.9472872 33.960719,14.8490784 C34.6276458,14.6103813 34.3437558,12.8645962 34.2327114,12.3662285 C33.6563386,9.77318512 30.3038579,8.81007373 28.0089422,9.03079369 C25.6300822,9.25950352 23.5714661,10.6983447 21.9917285,12.4291487 C20.547822,14.0114745 19.4102788,15.8870948 18.5718281,17.8592593 C15.3343577,25.472267 16.8863341,37.9114848 18.9856004,41.4087143 C18.394025,40.4555903 17.0902458,39.5956813 16.2769123,38.8176684 C15.4910095,38.0656225 14.6935394,37.3268931 13.9268049,36.5552055 C12.3160014,34.934595 10.82153,33.1731632 9.74942366,31.1380785 C8.22818269,28.250076 7.11906153,24.9662423 7.09890169,21.6800783 C7.08700409,19.7784909 7.32693912,17.6252229 8.38648693,15.9962896 C6.41181502,15.613442 4.53893372,16.7553266 3.09701012,17.9957528 C1.42209175,19.4355926 -0.193338594,21.4969773 0.0188353587,23.8253565 C0.253482565,26.3977594 1.80843342,28.8536435 3.02496351,31.0658368 C5.38300269,35.3537299 8.69549416,38.9811277 12.419775,42.1148185 C14.4334446,43.8090023 16.6146721,45.3104307 18.8937244,46.6181049 C20.4258715,47.4969899 22.4365668,48.5366708 24.1944379,47.6804238 C24.355386,47.6025226 24.6548091,47.489 24.7023995,47.3002395 C24.7519728,47.1021575 24.5930076,46.8454831 24.5160037,46.6743669 C24.4052899,46.4286786 24.2671455,46.1963068 24.1570926,45.9502856 M66.4913153,26.6293989 C67.3020049,25.0627199 69.3764845,22.7017154 68.7607834,20.7861458 C68.2495169,19.1971618 65.9803793,18.1891075 64.3315696,19.5200854 C62.1866958,21.3041552 62.3093072,31.6570201 63.0720759,33.1780902 C63.4772554,34.8769348 66.2265936,36.113699 67.419659,34.4531392 C67.6397647,34.1468611 67.6278671,33.6401706 67.299361,33.4574025 C67.0951188,33.343547 66.8446081,33.3864925 66.6106219,33.3728431 C65.5259569,33.3085913 65.2810645,31.0051804 65.3167573,30.2051954 C65.3729405,28.9368047 65.9182474,27.7366607 66.4913153,26.6293989 M57.4052798,34.645595 C57.0480211,31.7772342 59.9824332,27.643146 59.8842779,24.3220263 C59.8380095,22.7446942 59.4014335,20.8857195 57.9003523,20.0857344 C57.6931357,19.9755409 57.4697251,19.8946436 57.2373913,19.8373829 C56.5466693,19.6669325 55.7743164,19.702221 55.0968139,19.7684703 C54.2963695,19.8467044 53.5114581,20.0541079 52.7817383,20.3963404 C51.4174797,21.0361952 50.324222,22.1055052 49.3628294,23.2497202 C48.8869252,23.8160017 48.4374601,24.4039224 47.9840292,24.9881812 C48.0200525,24.9415736 47.7117062,24.4581869 47.6756829,24.3955997 C47.5576984,24.1915252 47.4301296,23.9924445 47.2936376,23.8003549 C47.0223061,23.4181731 46.7149513,23.0602938 46.3699208,22.7440284 C45.7472795,22.1730861 44.9564193,21.6996868 44.0968173,21.6480856 C43.6268619,21.6197881 43.1522797,21.7209931 42.7242964,21.9167447 C42.3825707,22.0728799 41.9516131,22.31191 41.7539806,22.6471513 C41.4641418,23.1391937 41.5986508,23.7890359 41.7463794,24.3040491 C42.2041067,25.9013559 43.126832,27.3381996 43.8099528,28.8412925 C43.8813385,28.9987594 43.9507412,29.1568921 44.0165085,29.3166894 C44.7201196,31.0211935 45.5704679,32.7556595 45.6696146,34.4791395 C45.7373648,35.6573114 45.0248305,37.3241966 46.0004341,37.4763369 C49.1757726,37.8585186 48.291384,32.3624917 48.9751658,29.4831449 C49.5184897,27.1950479 50.9296779,25.5025286 53.1551909,24.7052068 C53.3591027,24.6322993 53.5937499,24.6183171 53.786425,24.7171916 C54.0326393,24.8433649 54.1651654,25.1300012 54.1830118,25.4079819 C54.2725743,26.8122003 53.68166,28.4864095 53.4126419,29.8629963 C53.0999993,31.4613017 52.821397,33.0772515 52.7595956,34.7081823 C52.642933,37.7995934 53.5521083,40.9386108 56.9078938,41.6770073 C58.557034,42.0398802 60.0786055,42.1057966 61.4081628,40.9163057 C62.5906525,39.8579818 63.2820356,38.2024156 62.199023,36.810182 C59.9787978,36.9396844 57.7248627,37.2080106 57.4052798,34.645595 M87.7074547,2.33828478 C93.5739654,2.24207352 82.6883179,17.6159014 78.0931986,17.4883965 C80.1048853,12.5206992 84.7611451,2.37457208 87.7074547,2.33828478 M81.1697209,39.2780842 C80.4254596,39.0810009 79.6944179,38.9395138 79.0268301,38.5543358 C78.5248172,38.2643704 78.0684119,37.8978354 77.6705031,37.4747056 C76.8710502,36.6234523 76.3211164,35.5644625 75.9486553,34.4615285 C75.4089667,32.8642218 75.2119953,31.1560557 75.203733,29.4751883 C75.1938184,27.3522151 75.475395,25.2192546 76.0021945,23.1648611 C76.2421296,22.2290485 76.5346123,21.3048877 76.90476,20.4126863 C77.0452179,20.0731171 77.34398,19.4578977 77.34398,19.4578977 C77.34398,19.4578977 78.576043,19.4096256 79.0255081,19.3277295 C83.7310108,18.4711496 87.9021128,14.5244903 90.2089261,10.468969 C91.7913076,7.68649926 93.4530064,3.16290522 90.1001953,0.962696722 C84.8384795,-2.4905886 80.0639046,4.195595 77.990747,7.64555121 C76.8366793,9.56578159 75.882888,11.6025308 75.0183287,13.669242 C74.648842,14.551456 74.2972017,15.4406612 73.9515101,16.3325296 C73.8295597,16.6474634 73.4243801,17.6465292 73.4243801,17.6465292 C73.4243801,17.6465292 72.7779436,17.5373344 72.6057588,17.4947218 C72.1939695,17.3931839 71.787468,17.2643474 71.3935251,17.1065476 C70.2963015,16.6671052 68.9667442,15.9077353 68.6458394,14.6646458 C73.022175,16.1470982 75.0391495,8.68889414 70.2982845,7.83797374 C67.5158974,7.4537945 65.932855,9.79315977 66.2217024,12.3858703 C66.3902518,13.8979518 66.9738954,15.4772814 68.0274944,16.5922002 C69.0176395,17.6402039 70.3607469,18.2837207 71.696253,18.7601163 C71.9930322,18.865982 72.5938612,19.0560742 72.5938612,19.0560742 L72.9326125,19.1466259 C72.9326125,19.1466259 72.7855449,19.7092454 72.7455557,19.8484022 C72.4990109,20.7109745 72.2597368,21.5752113 72.0376482,22.4441089 C71.576616,24.2464888 71.1909353,26.0718396 70.9695077,27.920827 C70.7546898,29.7102234 70.7229629,31.5006185 70.8478877,33.297006 C71.081213,36.6600725 71.7031933,40.9509618 74.3973398,43.2850005 C75.6333688,44.355975 77.9937214,45.122336 79.5007513,44.1811968 C80.8170891,43.3589067 81.1581538,41.6097926 81.6367019,40.2518488 C81.7341961,39.9748669 81.7497291,39.6206496 81.5263185,39.4318891 C81.4261804,39.3473297 81.2959677,39.3117082 81.1697209,39.2780842 M101.535082,8.87312706 C103.198764,9.60186914 98.5567153,21.4534991 88.6661703,24.8421997 C90.5212052,18.4722815 99.2292605,7.84077019 101.535082,8.87312706 M94.621252,41.4877474 C94.0699964,41.2913299 93.53857,41.0240024 93.0385401,40.7177244 C92.0883842,40.1354631 91.2548909,39.3747616 90.5803628,38.4845577 C89.1665307,36.6199234 88.4857233,34.2978695 88.1882832,31.9991194 C88.0098191,30.6212009 87.9652031,29.2276357 88.0055228,27.839397 C100.322849,25.1880942 106.304369,11.5474008 104.369687,8.19132543 C102.612807,5.14319273 99.1020222,6.0690181 95.9907986,8.09944201 C93.9407751,9.43741113 86.1888246,14.8435521 83.9963604,26.1998106 C83.2468113,26.3902356 82.47545,26.3822458 81.7229265,26.2171219 C81.4291217,26.1525372 80.9869274,25.9021882 80.6927922,26.0023944 C80.3860984,26.1069284 80.3110774,26.4478292 80.411546,26.7294719 C80.516311,27.0230994 80.8101158,27.1799004 81.0639313,27.3290445 C81.8290134,27.7784743 82.714724,28.0248284 83.5839101,28.1653168 C83.001258,33.383696 84.6847691,41.8103381 88.0055228,45.3225487 C89.1691746,46.5539863 90.9118433,47.011073 92.5325614,46.5609774 C94.0257108,46.1455046 96.4838882,44.633423 95.9111507,42.7518103 C95.7171536,42.1146187 95.224725,41.7028079 94.621252,41.4877474 M108.46276,31.388361 C107.938274,32.6577504 107.062148,33.8469083 106.201554,34.9012373 C105.293701,36.0138257 104.275134,37.138066 102.88047,37.2775557 C102.61013,37.3045215 102.325249,37.2948671 102.024173,37.2402697 C100.42064,36.9506372 99.5739275,36.0324688 99.6644815,34.3396166 C99.7593318,32.5775189 100.532346,30.8613629 101.786882,29.6295924 C104.332969,27.1287653 110.428839,26.6303976 108.46276,31.388361 M115.95726,27.1660513 C114.097598,26.8990567 112.769693,28.726405 111.493675,29.3306383 C112.594204,26.3630701 110.120163,24.4494979 109.511071,23.8359431 C100.991395,18.1638062 88.9503579,33.1720978 94.9639361,38.9877193 C97.5635628,41.0457748 101.671211,41.5551286 104.551753,39.3206303 C104.956602,44.0006924 114.069507,44.7317649 114.138579,40.1529076 C103.04241,43.0315887 116.160511,33.6621428 117.77528,30.1625828 C118.425352,28.7547024 117.618298,27.4034168 115.95726,27.1660513 M34.6310829,35.7672386 C34.235818,36.4270681 33.6482086,36.9494054 32.7991823,37.2390379 C29.3842392,38.4042263 27.8494482,34.532139 27.8629982,31.9564069 C27.8705995,30.5515227 28.3071755,28.9472248 29.3346658,27.9255211 C30.1638628,27.1009006 31.5948803,26.6035317 32.8348751,26.8069403 C33.2912804,26.8821782 33.7067051,27.0895817 34.0395076,27.3895344 C34.7477455,28.0280577 34.9394292,28.9192603 35.0891407,29.7978123 C35.2365388,30.6610504 35.3403124,31.5342758 35.3498965,32.4111633 C35.3624551,33.5430605 35.2358778,34.7575197 34.6310829,35.7672386 M42.5433206,37.5546375 C41.8843255,37.2716632 41.1876546,36.9141168 40.7196822,36.3514973 C40.1832985,35.7066488 39.8597497,34.6306806 39.6515417,33.8250361 C39.1439105,31.8595298 39.2913086,29.8011414 39.4403592,27.798682 C39.5143887,26.800615 39.6075866,25.8045454 39.7064028,24.8088087 C39.7870422,23.9975047 39.8739608,23.1871995 39.9483208,22.3755626 C39.9879795,21.9397821 40.0653139,21.4707106 40.0200369,21.031934 C40.0183845,21.0179517 40.016732,21.0039694 40.0144186,20.9899872 C39.7853897,19.6586763 38.0235527,19.1053783 36.661938,20.0811403 C35.9917062,20.560865 35.6476671,21.3139095 35.4516872,22.0962503 C35.3518795,22.4964092 35.2851207,22.9038923 35.2160485,23.3103765 C35.1509421,23.6928912 35.1172323,24.1313349 34.9754525,24.4945408 C34.8763058,24.747886 34.7999628,24.4782282 34.7232894,24.3374068 C34.6304219,24.1679551 34.5259874,24.0048288 34.4103162,23.8503581 C34.190541,23.5563977 33.9297852,23.2940639 33.6386244,23.0716794 C33.0444051,22.6175888 32.3328622,22.3389424 31.5988461,22.2194273 C30.9930598,22.1205528 30.3598428,22.0922553 29.7428198,22.1621666 C29.40506,22.2004514 29.0719271,22.2683652 28.7510222,22.370236 C26.3500195,23.1332679 24.950068,25.6820342 24.1843249,27.9807843 C23.8234309,29.0647424 23.6089435,30.1966396 23.5160761,31.3348622 C23.4218867,32.4880657 23.4516307,33.6522553 23.6036557,34.7994665 C23.7494013,35.9033992 24.0085047,36.99568 24.4031086,38.0370255 C24.7643331,38.9911483 25.2412288,39.9089838 25.8708104,40.7122979 C27.1702932,42.3705274 29.0735795,43.3126654 31.1873873,42.8645672 C33.5388167,42.3665324 35.7375602,40.0195102 36.4540604,37.7617081 C36.5452753,37.4734072 36.5505632,36.808917 36.9170755,36.9663839 C37.1087591,37.0486129 37.4227237,37.8985345 37.5565717,38.1016102 C38.0314845,38.8193662 38.6214074,39.4698742 39.3593894,39.919304 C40.5091607,40.618417 44.2585586,41.2366327 43.9065878,38.8796231 C43.7866203,38.0766419 43.1914096,37.8329511 42.5433206,37.5546375"/>
    <path fill-opacity=".721" d="M46.2401961,54.1707317 C42.3552519,54.1707317 39.2058824,57.2282993 39.2058824,61 C39.2058824,64.7717007 42.3552519,67.8292683 46.2401961,67.8292683 L70.7598039,67.8292683 C74.6447481,67.8292683 77.7941176,64.7717007 77.7941176,61 C77.7941176,57.2282993 74.6447481,54.1707317 70.7598039,54.1707317 L46.2401961,54.1707317 Z M46.2401961,53 L70.7598039,53 C75.3107386,53 79,56.581722 79,61 C79,65.418278 75.3107386,69 70.7598039,69 L46.2401961,69 C41.6892614,69 38,65.418278 38,61 C38,56.581722 41.6892614,53 46.2401961,53 Z M46.0703013,55.3414634 C42.9451778,55.3414634 40.4117647,57.8748765 40.4117647,61 L40.4117647,61 L40.4117647,61 C40.4117647,64.1251235 42.9451778,66.6585366 46.0703013,66.6585366 L70.9296987,66.6585366 C74.0548222,66.6585366 76.5882353,64.1251235 76.5882353,61 L76.5882353,61 C76.5882353,57.8748765 74.0548222,55.3414634 70.9296987,55.3414634 L70.9296987,55.3414634 L46.0703013,55.3414634 Z M52.3642099,61.0163872 C52.3642099,62.2087204 52.0146567,63.121948 51.3155398,63.7560976 C50.6164229,64.3902471 49.6068859,64.7073171 48.2868987,64.7073171 L46.1742494,64.7073171 L46.1742494,57.4641768 L48.5165345,57.4641768 C49.7344609,57.4641768 50.6802107,57.7762926 51.3538124,58.4005335 C52.0274141,59.0247745 52.3642099,59.896717 52.3642099,61.0163872 Z M50.7210382,61.0560213 C50.7210382,59.5003733 50.0134268,58.722561 48.5981828,58.722561 L47.7561849,58.722561 L47.7561849,63.4390244 L48.4348863,63.4390244 C49.9589952,63.4390244 50.7210382,62.644698 50.7210382,61.0560213 Z M60.1160341,61.0758384 C60.1160341,62.2747773 59.8098561,63.196262 59.1974909,63.8403201 C58.5851258,64.4843782 57.7074155,64.8064024 56.5643338,64.8064024 C55.4212521,64.8064024 54.5435418,64.4843782 53.9311766,63.8403201 C53.3188114,63.196262 53.0126334,62.2714745 53.0126334,61.0659299 C53.0126334,59.8603852 53.3196619,58.9397262 53.9337281,58.3039253 C54.5477943,57.6681244 55.4280561,57.3502287 56.5745398,57.3502287 C57.7210235,57.3502287 58.5978833,57.6706015 59.2051455,58.3113567 C59.8124076,58.9521119 60.1160341,59.8735966 60.1160341,61.0758384 Z M54.6711142,61.0758384 C54.6711142,61.8850396 54.8293062,62.4944085 55.1456948,62.9039634 C55.4620835,63.3135183 55.9349584,63.5182927 56.5643338,63.5182927 C57.8264865,63.5182927 58.4575534,62.7041494 58.4575534,61.0758384 C58.4575534,59.4442246 57.8298885,58.6284299 56.5745398,58.6284299 C55.9451645,58.6284299 55.4705886,58.83403 55.1507979,59.2452363 C54.8310071,59.6564426 54.6711142,60.2666372 54.6711142,61.0758384 Z M64.2651278,58.6383384 C63.6697728,58.6383384 63.2088048,58.8554983 62.88221,59.2898247 C62.5556152,59.7241511 62.3923203,60.3293914 62.3923203,61.105564 C62.3923203,62.7206636 63.0165832,63.5282012 64.2651278,63.5282012 C64.7890403,63.5282012 65.4235091,63.4010429 66.1685534,63.1467226 L66.1685534,64.4348323 C65.5561882,64.682547 64.8723907,64.8064024 64.1171403,64.8064024 C63.0318931,64.8064024 62.2018105,64.4868553 61.6268676,63.8477515 C61.0519247,63.2086477 60.7644576,62.2912915 60.7644576,61.0956555 C60.7644576,60.3426029 60.9056397,59.6828661 61.1880081,59.1164253 C61.4703765,58.5499845 61.8760623,58.1156646 62.4050778,57.8134527 C62.9340933,57.5112409 63.5541038,57.3601372 64.2651278,57.3601372 C64.98976,57.3601372 65.7177832,57.530232 66.4492194,57.8704268 L65.9389176,59.1189024 C65.6599513,58.9900908 65.3792881,58.8777952 65.0969197,58.7820122 C64.8145513,58.6862292 64.5372901,58.6383384 64.2651278,58.6383384 Z M71.5934015,62.6958841 C71.5934015,63.3498508 71.3510106,63.8650896 70.8662215,64.2416159 C70.3814324,64.6181421 69.7069903,64.8064024 68.842875,64.8064024 C68.0468002,64.8064024 67.3425908,64.6610787 66.7302256,64.3704268 L66.7302256,62.9435976 C67.2337259,63.1615865 67.6598236,63.3151672 68.0085316,63.4043445 C68.3572395,63.4935218 68.6761749,63.5381098 68.9653474,63.5381098 C69.3123543,63.5381098 69.5785591,63.4737049 69.7639697,63.3448933 C69.9493802,63.2160817 70.0420841,63.0245185 70.0420841,62.7701982 C70.0420841,62.6281751 70.0012604,62.5018425 69.9196117,62.3911966 C69.837963,62.2805508 69.7180433,62.1740351 69.559849,62.0716463 C69.4016546,61.9692576 69.0793172,61.8057684 68.5928271,61.5811738 C68.1369552,61.3730935 67.7950565,61.1732733 67.5671205,60.9817073 C67.3391846,60.7901413 67.1571788,60.5672015 67.0210976,60.3128811 C66.8850165,60.0585607 66.8169769,59.7613076 66.8169769,59.4211128 C66.8169769,58.7803576 67.0406569,58.2766787 67.4880237,57.910061 C67.9353905,57.5434433 68.5537,57.3601372 69.3429707,57.3601372 C69.730802,57.3601372 70.1007671,57.4047252 70.4528771,57.4939024 C70.8049871,57.5830797 71.1732512,57.7085866 71.5576804,57.8704268 L71.0473786,59.0644055 C70.6493413,58.9058681 70.3201999,58.7952239 70.0599447,58.7324695 C69.7996895,58.6697151 69.5436907,58.6383384 69.2919405,58.6383384 C68.992562,58.6383384 68.7629285,58.7060461 68.6030331,58.8414634 C68.4431378,58.9768808 68.3631913,59.1535812 68.3631913,59.3715701 C68.3631913,59.5069875 68.3955101,59.625063 68.4601486,59.7258003 C68.5247872,59.8265376 68.627697,59.9239706 68.7688812,60.0181021 C68.9100654,60.1122337 69.2443097,60.2815028 69.7716242,60.5259146 C70.4690401,60.8495951 70.947018,61.1740964 71.2055722,61.4994284 C71.4641264,61.8247603 71.5934015,62.2235749 71.5934015,62.6958841 Z"/>
  </g>
</svg>
