<svg width="371px" height="326px" viewBox="733 246 371 326" version="1.1" xmlns="http://www.w3.org/2000/svg" xmlns:xlink="http://www.w3.org/1999/xlink">
    <defs>
        <rect id="path-1" x="0" y="0" width="371" height="113" rx="2"></rect>
    </defs>
    <rect id="Rectangle-68-Copy" stroke="none" fill="#FFFFFF" fill-rule="evenodd" x="733" y="246" width="371" height="326" rx="2"></rect>
    <g id="Group-2" stroke="none" stroke-width="1" fill="none" fill-rule="evenodd" transform="translate(733.000000, 246.000000)">
        <mask id="mask-2" fill="white">
            <use xlink:href="#path-1"></use>
        </mask>
        <use id="Rectangle-68-Copy" fill="#333333" xlink:href="#path-1"></use>
        <polyline id="Path-309" stroke="#505050" opacity="0.49061334" mask="url(#mask-2)" points="0 12 45.0625 45.2578125 108.179688 21.1992188 155.546875 88.1523438 275.210938 111.289063 219.835938 15.9609375 345.402344 -4.2734375 313.714844 45.2578125 370.46875 65.1875"></polyline>
        <polyline id="Path-310" stroke="#505050" opacity="0.49061334" mask="url(#mask-2)" points="1 96.984375 51.703125 69.2421875 44.7578125 46.1015625 68.0273438 0 220.230469 16.0546875 313.589844 46.1015625 355.902344 104.132813 149.273438 115.636719 176.710938 -11.6484375 108.117188 21.34375 80.4179688 126.441406 51.7460938 69.53125 0.5859375 67.8789062"></polyline>
        <circle id="Oval-56" stroke="#424242" fill="#333333" mask="url(#mask-2)" cx="46" cy="45" r="4"></circle>
        <circle id="Oval-56" stroke="#424242" fill="#333333" mask="url(#mask-2)" cx="52" cy="70" r="4"></circle>
        <circle id="Oval-56" stroke="#424242" fill="#333333" mask="url(#mask-2)" cx="68" cy="-1" r="4"></circle>
        <circle id="Oval-56" stroke="#424242" fill="#333333" mask="url(#mask-2)" cx="137" cy="7" r="4"></circle>
        <circle id="Oval-56" stroke="#424242" fill="#333333" mask="url(#mask-2)" cx="108" cy="21" r="4"></circle>
        <circle id="Oval-56" stroke="#424242" fill="#333333" mask="url(#mask-2)" cx="156" cy="88" r="4"></circle>
        <circle id="Oval-56" stroke="#424242" fill="#333333" mask="url(#mask-2)" cx="172" cy="11" r="4"></circle>
        <circle id="Oval-56" stroke="#424242" fill="#333333" mask="url(#mask-2)" cx="220" cy="16" r="4"></circle>
        <circle id="Oval-56" stroke="#424242" fill="#333333" mask="url(#mask-2)" cx="313" cy="46" r="4"></circle>
    </g>
</svg>