
<svg width="371px" height="326px" viewBox="321 246 371 326" version="1.1" xmlns="http://www.w3.org/2000/svg" xmlns:xlink="http://www.w3.org/1999/xlink">
    <defs>
        <rect id="path-1" x="0" y="0" width="371" height="326" rx="2"></rect>
        <rect id="path-3" x="0" y="0" width="555" height="249"></rect>
        <path d="M-29.6292975,257.269308 C-33.3749785,258.976072 -37.5013181,259.921198 -41.8355292,259.921198 C-58.9462039,259.921198 -72.8171463,245.191155 -72.8171463,227.020726 C-72.8171463,208.850297 -58.9462039,194.120254 -41.8355292,194.120254 C-41.6759113,194.120254 -41.5165754,194.121536 -41.35753,194.124091 C-41.4184316,193.49648 -41.4496409,192.859519 -41.4496409,192.214816 C-41.4496409,182.048207 -33.6886549,173.806542 -24.1149934,173.806542 C-18.1118995,173.806542 -12.8215178,177.047021 -9.71035769,181.970639 C-6.87960383,180.993459 -3.85814524,180.465291 -0.720521165,180.465291 C10.5909783,180.465291 20.3926908,187.329817 25.1920655,197.350006 C27.193374,196.493213 29.3798417,196.021578 31.6700408,196.021578 C40.3775736,196.021578 47.5855798,202.839454 48.8185263,211.722477 C54.2314695,212.616418 59.0713355,215.349645 62.753707,219.301545 C69.0914936,210.310204 79.2016029,204.491113 90.5915657,204.491113 C109.783835,204.491113 125.342244,221.013136 125.342244,241.394084 C125.342244,261.775032 109.783835,278.297055 90.5915657,278.297055 C77.474833,278.297055 66.0554331,270.579817 60.1399891,259.187729 C55.9227693,262.609518 50.6526683,264.642091 44.9355223,264.642091 C41.6281884,264.642091 38.4704605,263.96188 35.5796259,262.726009 C34.2348053,280.594902 20.1534925,294.650575 2.98076894,294.650575 C-15.0811384,294.650575 -29.7232074,279.101645 -29.7232074,259.921069 C-29.7232074,259.028891 -29.6915276,258.144571 -29.6292975,257.269308 Z" id="path-5"></path>
        <filter x="-50%" y="-50%" width="200%" height="200%" filterUnits="objectBoundingBox" id="filter-6">
            <feOffset dx="0" dy="-2" in="SourceAlpha" result="shadowOffsetOuter1"></feOffset>
            <feGaussianBlur stdDeviation="3" in="shadowOffsetOuter1" result="shadowBlurOuter1"></feGaussianBlur>
            <feColorMatrix values="0 0 0 0 0   0 0 0 0 0   0 0 0 0 0  0 0 0 0.182914402 0" type="matrix" in="shadowBlurOuter1"></feColorMatrix>
        </filter>
        <path d="M156.056148,231.931676 C171.135869,234.251633 182.676349,247.153341 182.676349,262.721517 C182.676349,279.931527 168.573376,293.882997 151.176477,293.882997 C145.605329,293.882997 140.371981,292.45224 135.831415,289.941896 C135.390037,332.536074 100.349357,366.930363 57.1882248,366.930363 C13.7524618,366.930363 -21.4591813,332.096985 -21.4591813,289.127836 C-21.4591813,246.158687 13.7524618,211.325309 57.1882248,211.325309 C59.2540813,211.325309 61.3013343,211.404105 63.3270803,211.558823 C69.8613004,201.785941 81.0705517,195.339875 93.8017117,195.339875 C108.01658,195.339875 120.334138,203.375959 126.365387,215.106278 C128.88038,214.103257 131.628057,213.551129 134.506091,213.551129 C145.448622,213.551129 154.506736,221.532601 156.056148,231.931676 Z" id="path-7"></path>
        <filter x="-50%" y="-50%" width="200%" height="200%" filterUnits="objectBoundingBox" id="filter-8">
            <feOffset dx="0" dy="-2" in="SourceAlpha" result="shadowOffsetOuter1"></feOffset>
            <feGaussianBlur stdDeviation="3" in="shadowOffsetOuter1" result="shadowBlurOuter1"></feGaussianBlur>
            <feColorMatrix values="0 0 0 0 0   0 0 0 0 0   0 0 0 0 0  0 0 0 0.182914402 0" type="matrix" in="shadowBlurOuter1"></feColorMatrix>
        </filter>
        <path d="M424.339352,273.949972 C421.036412,277.861756 416.377998,280.689461 410.917085,281.652368 C398.6263,283.819565 386.924662,275.719811 384.780747,263.561061 C383.053229,253.763822 388.058433,244.320617 396.498045,239.888201 C394.820359,228.009522 402.957345,216.831812 414.991406,214.709883 C417.570764,214.255072 420.124174,214.252436 422.568744,214.644595 C427.803856,206.435631 436.378469,200.348308 446.783189,198.513675 C456.623565,196.778551 466.226699,199.177776 473.776146,204.454023 C477.375836,200.08556 482.512177,196.921717 488.551761,195.856776 C492.666945,195.131158 496.721354,195.46464 500.42995,196.659922 C503.25755,189.725875 509.523465,184.337642 517.502688,182.93069 C529.793473,180.763493 541.495111,188.863247 543.639026,201.021997 C544.069073,203.460915 544.081888,205.877893 543.728354,208.201093 C553.321108,213.112772 560.560052,222.24393 562.562264,233.599037 C565.975027,252.953782 552.881115,271.440537 533.316191,274.890361 C527.037375,275.997486 520.855147,275.421397 515.241375,273.488717 C512.03926,280.682135 505.387398,286.221596 496.988958,287.702468 C485.076419,289.80297 473.673152,283.028492 469.693494,272.165066 C466.747024,279.996787 459.804698,286.131976 450.897994,287.702468 C439.652236,289.685399 428.860335,283.759063 424.339352,273.949972 Z" id="path-9"></path>
        <filter x="-50%" y="-50%" width="200%" height="200%" filterUnits="objectBoundingBox" id="filter-10">
            <feOffset dx="0" dy="-2" in="SourceAlpha" result="shadowOffsetOuter1"></feOffset>
            <feGaussianBlur stdDeviation="3" in="shadowOffsetOuter1" result="shadowBlurOuter1"></feGaussianBlur>
            <feColorMatrix values="0 0 0 0 0   0 0 0 0 0   0 0 0 0 0  0 0 0 0.182914402 0" type="matrix" in="shadowBlurOuter1"></feColorMatrix>
        </filter>
        <path d="M285.249798,272.13462 C281.134515,274.610805 276.07595,275.785078 270.791528,275.136233 C258.857019,273.67086 250.289876,263.461549 251.656278,252.3331 C252.756223,243.374769 259.95795,236.551633 268.950497,234.995595 C270.654984,224.220736 281.244702,216.725724 292.940854,218.161831 C295.43527,218.468106 297.782583,219.156358 299.922843,220.155141 C307.008684,214.468217 316.586876,211.527362 326.682971,212.767007 C336.224167,213.938518 344.413328,218.620822 349.926383,225.236048 C354.443981,222.438453 360.041869,221.09917 365.894703,221.817807 C369.876617,222.306725 373.513594,223.691334 376.599128,225.725547 C381.115229,220.485638 388.374665,217.520837 396.1192,218.471746 C408.053708,219.937119 416.620852,230.14643 415.25445,241.274879 C414.979158,243.51695 414.321657,245.625275 413.34953,247.550754 C420.859132,254.42184 425.033206,264.318479 423.756121,274.719507 C421.581032,292.434181 404.417024,304.903787 385.419235,302.571152 C379.341381,301.824885 373.812162,299.653996 369.173835,296.466346 C364.241159,301.830295 356.583436,304.821973 348.431082,303.82099 C336.884761,302.40328 328.238753,293.454413 327.527867,282.974281 C322.650374,288.926655 314.584337,292.331115 305.965433,291.272847 C295.051974,289.932842 286.729605,281.864633 285.249798,272.13462 Z" id="path-11"></path>
        <filter x="-50%" y="-50%" width="200%" height="200%" filterUnits="objectBoundingBox" id="filter-12">
            <feOffset dx="0" dy="-2" in="SourceAlpha" result="shadowOffsetOuter1"></feOffset>
            <feGaussianBlur stdDeviation="3" in="shadowOffsetOuter1" result="shadowBlurOuter1"></feGaussianBlur>
            <feColorMatrix values="0 0 0 0 0   0 0 0 0 0   0 0 0 0 0  0 0 0 0.182914402 0" type="matrix" in="shadowBlurOuter1"></feColorMatrix>
        </filter>
        <path d="M152.597512,242.991032 C148.785704,240.60498 144.104488,239.460555 139.22121,240.060147 C128.209362,241.412232 120.339972,251.120757 121.644433,261.744746 C122.691764,270.274569 129.334333,276.80115 137.611608,278.34294 C139.249042,288.605971 149.040775,295.77494 159.816404,294.451859 C162.158482,294.164288 164.358408,293.498707 166.358154,292.526706 C172.911953,297.929753 181.72557,300.740488 190.996731,299.602132 C199.8437,298.515861 207.416464,294.041215 212.480713,287.700969 C216.644661,290.345309 221.778917,291.619504 227.137026,290.961611 C230.828315,290.508377 234.19468,289.191104 237.043758,287.247113 C241.237925,292.209735 247.914153,295.028234 255.017993,294.155992 C266.02984,292.803908 273.899231,283.095382 272.594769,272.471393 C272.335845,270.362626 271.734945,268.376294 270.851912,266.557451 C277.811827,260.027296 281.663381,250.56343 280.439173,240.593052 C278.362682,223.681397 262.469241,211.716574 244.940179,213.868872 C239.314685,214.559596 234.204387,216.620329 229.926622,219.65957 C225.349332,214.593715 218.317771,211.758954 210.851558,212.67569 C200.12967,213.992172 192.149154,222.598529 191.624166,232.678868 C187.100151,226.966724 179.631744,223.677308 171.668945,224.655017 C161.543349,225.898284 153.862684,233.643126 152.597512,242.991032 L152.597512,242.991032 Z" id="path-13"></path>
        <filter x="-50%" y="-50%" width="200%" height="200%" filterUnits="objectBoundingBox" id="filter-14">
            <feOffset dx="0" dy="-2" in="SourceAlpha" result="shadowOffsetOuter1"></feOffset>
            <feGaussianBlur stdDeviation="3" in="shadowOffsetOuter1" result="shadowBlurOuter1"></feGaussianBlur>
            <feColorMatrix values="0 0 0 0 0   0 0 0 0 0   0 0 0 0 0  0 0 0 0.182914402 0" type="matrix" in="shadowBlurOuter1"></feColorMatrix>
        </filter>
        <path d="M540.349935,236.855635 C534.574388,230.270409 526.05276,226.105849 516.547884,226.105849 C505.006668,226.105849 494.915136,232.246005 489.429212,241.404296 C484.826834,239.333197 479.713361,238.179568 474.327517,238.179568 C458.107858,238.179568 444.358421,248.642231 439.599425,263.117384 C433.346839,259.439632 426.04323,257.327542 418.240959,257.327542 C395.126819,257.327542 376.389106,275.863963 376.389106,298.729797 C376.389106,321.595631 395.126819,340.132052 418.240959,340.132052 C438.42447,340.132052 455.27097,325.998093 459.218426,307.189487 C463.822721,309.262678 468.938788,310.417544 474.327517,310.417544 C489.832369,310.417544 503.079929,300.856748 508.374591,287.369573 C510.981131,288.060437 513.721021,288.428809 516.547884,288.428809 C524.569529,288.428809 531.890853,285.46259 537.452207,280.578418 C541.093961,290.965819 551.072938,298.423209 562.812597,298.423209 C577.633417,298.423209 589.648065,286.53763 589.648065,271.876024 C589.648065,257.214419 577.633417,245.328839 562.812597,245.328839 C562.723393,245.328839 562.63429,245.32927 562.545291,245.330129 C561.892239,238.658397 556.208038,233.443037 549.292496,233.443037 C545.850414,233.443037 542.71338,234.735072 540.349935,236.855635 L540.349935,236.855635 Z" id="path-15"></path>
        <filter x="-50%" y="-50%" width="200%" height="200%" filterUnits="objectBoundingBox" id="filter-16">
            <feOffset dx="0" dy="-2" in="SourceAlpha" result="shadowOffsetOuter1"></feOffset>
            <feGaussianBlur stdDeviation="3" in="shadowOffsetOuter1" result="shadowBlurOuter1"></feGaussianBlur>
            <feColorMatrix values="0 0 0 0 0   0 0 0 0 0   0 0 0 0 0  0 0 0 0.182914402 0" type="matrix" in="shadowBlurOuter1"></feColorMatrix>
        </filter>
        <path d="M244.966493,345.542393 C237.763306,350.830154 228.253207,354.545899 217.585909,355.667077 C192.958147,358.25556 171.488351,346.034353 169.631779,328.370249 C168.195579,314.705719 178.917041,301.786904 195.246631,295.438929 C194.692431,278.428874 212.753016,262.963426 236.593729,260.457666 C241.389875,259.953571 246.066253,260.011145 250.501325,260.561207 C263.042833,247.420889 282.855236,237.830544 305.866314,235.411982 C328.876993,232.993462 350.250049,238.25478 365.249475,248.500069 C370.975195,246.029623 377.40227,244.317874 384.27082,243.595961 C392.160007,242.766774 399.751,243.336005 406.585784,245.042939 C411.899932,237.044735 420.791435,231.34159 431.323077,230.23467 C449.67371,228.30594 466.054886,241.061982 467.911458,258.726087 C467.986737,259.442318 468.036981,260.155621 468.062872,260.865185 C498.530521,263.754829 522.466365,281.117962 524.917949,304.443228 C527.873309,332.561598 498.488485,358.696319 459.285107,362.81676 C446.383411,364.172783 434.026157,362.975569 423.146974,359.756564 C415.065295,368.371767 402.16718,374.672831 387.162135,376.249925 C361.560239,378.940792 339.098696,366.904578 335.430559,349.051435 C327.928767,359.843645 313.349827,368.039779 295.931852,369.870482 C271.727587,372.414453 250.330163,361.795381 244.966493,345.542393 Z" id="path-17"></path>
        <filter x="-50%" y="-50%" width="200%" height="200%" filterUnits="objectBoundingBox" id="filter-18">
            <feOffset dx="0" dy="-2" in="SourceAlpha" result="shadowOffsetOuter1"></feOffset>
            <feGaussianBlur stdDeviation="3" in="shadowOffsetOuter1" result="shadowBlurOuter1"></feGaussianBlur>
            <feColorMatrix values="0 0 0 0 0   0 0 0 0 0   0 0 0 0 0  0 0 0 0.182914402 0" type="matrix" in="shadowBlurOuter1"></feColorMatrix>
        </filter>
        <path d="M202.996625,278.288655 C218.076346,281.411371 229.616826,298.777367 229.616826,319.732491 C229.616826,342.897561 215.513853,361.676562 198.116954,361.676562 C192.545806,361.676562 187.312458,359.75073 182.771892,356.371749 C182.330514,413.704495 147.289834,460 104.128702,460 C60.6929388,460 25.4812957,413.113471 25.4812957,355.276005 C25.4812957,297.43854 60.6929388,250.552011 104.128702,250.552011 C106.194558,250.552011 108.241811,250.658071 110.267557,250.866326 C116.801777,237.711801 128.011029,229.035247 140.742189,229.035247 C154.957057,229.035247 167.274615,239.852001 173.305864,255.641281 C175.820857,254.291192 178.568534,253.548016 181.446568,253.548016 C192.389099,253.548016 201.447213,264.29126 202.996625,278.288655 L202.996625,278.288655 Z" id="path-19"></path>
        <filter x="-50%" y="-50%" width="200%" height="200%" filterUnits="objectBoundingBox" id="filter-20">
            <feOffset dx="0" dy="-2" in="SourceAlpha" result="shadowOffsetOuter1"></feOffset>
            <feGaussianBlur stdDeviation="3" in="shadowOffsetOuter1" result="shadowBlurOuter1"></feGaussianBlur>
            <feColorMatrix values="0 0 0 0 0   0 0 0 0 0   0 0 0 0 0  0 0 0 0.182914402 0" type="matrix" in="shadowBlurOuter1"></feColorMatrix>
        </filter>
        <linearGradient x1="100%" y1="27.2786468%" x2="70.2776742%" y2="50%" id="linearGradient-21">
            <stop stop-color="#FFFFFF" stop-opacity="0" offset="0%"></stop>
            <stop stop-color="#FFFFFF" offset="100%"></stop>
        </linearGradient>
        <linearGradient x1="32.5143216%" y1="14.0949889%" x2="50%" y2="14.094989%" id="linearGradient-22">
            <stop stop-color="#FFFFFF" stop-opacity="0" offset="0%"></stop>
            <stop stop-color="#FFFFFF" offset="100%"></stop>
        </linearGradient>
        <linearGradient x1="-3.98173728%" y1="50%" x2="50%" y2="50%" id="linearGradient-23">
            <stop stop-color="#FFFFFF" stop-opacity="0" offset="0%"></stop>
            <stop stop-color="#FFFFFF" offset="100%"></stop>
        </linearGradient>
        <linearGradient x1="88.3550775%" y1="31.0326108%" x2="72.5790947%" y2="45.5816148%" id="linearGradient-24">
            <stop stop-color="#FFFFFF" stop-opacity="0" offset="0%"></stop>
            <stop stop-color="#FFFFFF" offset="100%"></stop>
        </linearGradient>
    </defs>
    <g id="Group" stroke="none" stroke-width="1" fill="none" fill-rule="evenodd" transform="translate(321.000000, 246.000000)">
        <mask id="mask-2" fill="white">
            <use xlink:href="#path-1"></use>
        </mask>
        <use id="Rectangle-68" fill="#FFFFFF" xlink:href="#path-1"></use>
        <g id="Group-5" mask="url(#mask-2)">
            <g transform="translate(-81.000000, -121.000000)">
                <mask id="mask-4" fill="white">
                    <use xlink:href="#path-3"></use>
                </mask>
                <use id="Rectangle-19" stroke="none" fill="#0291DB" fill-rule="evenodd" xlink:href="#path-3"></use>
                <g id="Combined-Shape" stroke="none" fill="none" mask="url(#mask-4)">
                    <use fill="black" fill-opacity="1" filter="url(#filter-6)" xlink:href="#path-5"></use>
                    <use fill="#FFFFFF" fill-rule="evenodd" xlink:href="#path-5"></use>
                </g>
                <g id="Combined-Shape" stroke="none" fill="none" mask="url(#mask-4)">
                    <use fill="black" fill-opacity="1" filter="url(#filter-8)" xlink:href="#path-7"></use>
                    <use fill="#FFFFFF" fill-rule="evenodd" xlink:href="#path-7"></use>
                </g>
                <g id="Combined-Shape" stroke="none" fill="none" mask="url(#mask-4)">
                    <use fill="black" fill-opacity="1" filter="url(#filter-10)" xlink:href="#path-9"></use>
                    <use fill="#FFFFFF" fill-rule="evenodd" xlink:href="#path-9"></use>
                </g>
                <g id="Combined-Shape" stroke="none" fill="none" mask="url(#mask-4)">
                    <use fill="black" fill-opacity="1" filter="url(#filter-12)" xlink:href="#path-11"></use>
                    <use fill="#FFFFFF" fill-rule="evenodd" xlink:href="#path-11"></use>
                </g>
                <g id="Combined-Shape" stroke="none" fill="none" mask="url(#mask-4)">
                    <use fill="black" fill-opacity="1" filter="url(#filter-14)" xlink:href="#path-13"></use>
                    <use fill="#FFFFFF" fill-rule="evenodd" xlink:href="#path-13"></use>
                </g>
                <g id="Combined-Shape" stroke="none" fill="none" mask="url(#mask-4)">
                    <use fill="black" fill-opacity="1" filter="url(#filter-16)" xlink:href="#path-15"></use>
                    <use fill="#FFFFFF" fill-rule="evenodd" xlink:href="#path-15"></use>
                </g>
                <g id="Combined-Shape" stroke="none" fill="none" mask="url(#mask-4)">
                    <use fill="black" fill-opacity="1" filter="url(#filter-18)" xlink:href="#path-17"></use>
                    <use fill="#FFFFFF" fill-rule="evenodd" xlink:href="#path-17"></use>
                </g>
                <g id="Combined-Shape" stroke="none" fill="none" mask="url(#mask-4)">
                    <use fill="black" fill-opacity="1" filter="url(#filter-20)" xlink:href="#path-19"></use>
                    <use fill="#FFFFFF" fill-rule="evenodd" xlink:href="#path-19"></use>
                </g>
                <rect id="Rectangle-32-Copy-2" stroke="none" fill="url(#linearGradient-21)" fill-rule="evenodd" mask="url(#mask-4)" x="252" y="237" width="28.6641974" height="27"></rect>
                <rect id="Rectangle-32-Copy-6" stroke="none" fill="url(#linearGradient-22)" fill-rule="evenodd" mask="url(#mask-4)" transform="translate(166.188334, 247.997350) rotate(44.000000) translate(-166.188334, -247.997350) " x="140.295689" y="231.018256" width="51.7852896" height="33.958187"></rect>
                <rect id="Rectangle-32-Copy-6" stroke="none" fill="url(#linearGradient-23)" fill-rule="evenodd" mask="url(#mask-4)" transform="translate(464.133893, 249.569668) rotate(84.000000) translate(-464.133893, -249.569668) " x="454.988504" y="243.742201" width="18.2907768" height="11.6549333"></rect>
                <polygon id="Rectangle-32-Copy-5" stroke="none" fill="url(#linearGradient-24)" fill-rule="evenodd" mask="url(#mask-4)" points="75.234237 242.193225 117.15216 216 137.878908 249.16973 95.9609849 275.362956"></polygon>
            </g>
        </g>
    </g>
</svg>