<?xml version="1.0" encoding="UTF-8"?>
<svg width="88px" height="60px" viewBox="0 0 88 60" version="1.1" xmlns="http://www.w3.org/2000/svg" xmlns:xlink="http://www.w3.org/1999/xlink">
    <!-- Generator: Sketch 46.2 (44496) - http://www.bohemiancoding.com/sketch -->
    <title>cloud</title>
    <desc>Created with Sketch.</desc>
    <defs></defs>
    <g id="Master" stroke="none" stroke-width="1" fill="none" fill-rule="evenodd">
        <g id="cloud" fill-rule="nonzero" fill="#0291DB">
            <path d="M20.1335135,55.5645495 L20.1335135,55.5645495 L67.5064865,55.5645495 C76.6091591,55.5645495 83.9883333,48.1853754 83.9883333,39.0827027 C83.9883333,31.0552765 78.2073112,24.231636 70.3955831,22.8526046 L67.5766327,22.3549655 L67.3867819,19.4987297 C67.0609234,14.5963054 62.974453,10.7576126 58.0318919,10.7576126 C56.2564949,10.7576126 54.5624574,11.2483399 53.0915845,12.1626729 L50.072825,14.0392127 L48.1155547,11.0721598 C45.0815821,6.4729194 39.9561571,3.65166667 34.3454054,3.65166667 C25.3344636,3.65166667 17.9968147,10.8891073 17.8653596,19.8867839 L17.8265392,22.5439145 L15.2862502,23.3241591 C8.42687945,25.4310008 3.65166667,31.7934724 3.65166667,39.0827027 C3.65166667,48.1853754 11.0308409,55.5645495 20.1335135,55.5645495 L20.1335135,55.5645495 Z M20.1335135,59.2162162 C9.01408104,59.2162162 0,50.2021352 0,39.0827027 C0,30.0233208 5.98347318,22.361454 14.2140826,19.8334391 C14.374515,8.85236082 23.3261704,0 34.3454054,0 C41.3746308,0 47.5625109,3.60222765 51.1637349,9.06137228 C53.1577677,7.82182939 55.511228,7.10594595 58.0318919,7.10594595 C64.9321069,7.10594595 70.5793514,12.4705503 71.0304085,19.256542 C80.4696431,20.9228828 87.64,29.1654294 87.64,39.0827027 C87.64,50.2021352 78.625919,59.2162162 67.5064865,59.2162162 L20.1335135,59.2162162 L20.1335135,59.2162162 Z" id="Combined-Shape"></path>
        </g>
    </g>
</svg>